<?xml version="1.0" encoding="utf-8"?>
<!-- Generator: Adobe Illustrator 16.0.0, SVG Export Plug-In . SVG Version: 6.00 Build 0)  -->
<!DOCTYPE svg PUBLIC "-//W3C//DTD SVG 1.1//EN" "http://www.w3.org/Graphics/SVG/1.1/DTD/svg11.dtd">
<svg version="1.1" xmlns="http://www.w3.org/2000/svg" xmlns:xlink="http://www.w3.org/1999/xlink" x="0px" y="0px" width="1024px"
	 height="768px" viewBox="0 0 1024 768" enable-background="new 0 0 1024 768" xml:space="preserve">
<g id="The_Sign">
	<path fill="#D4145A" d="M513.506,733.563c-5.197,5.187-13.204,5.596-17.885,0.91L154.526,392.932
		c-4.681-4.683-4.262-12.691,0.935-17.882l338.73-338.29c5.197-5.189,13.202-5.597,17.884-0.91l341.096,341.54
		c4.68,4.684,4.263,12.693-0.935,17.879L513.506,733.563z"/>
</g>
<g id="Outer_Line">
	<g>
		<g>
			<path fill="#FFFFFF" d="M509.742,711.063c-5.976,5.402-10.25,1.588-14.38-2.556c-4.108-4.12-8.217-8.241-12.325-12.361
				c-15.316-15.362-30.632-30.725-45.948-46.086c-44.739-44.873-89.478-89.745-134.216-134.618
				c-36.328-36.437-72.656-72.873-108.983-109.31c-3.94-3.951-7.88-7.903-11.82-11.855c-3.919-3.931-7.393-8.571-2.008-13.94
				c6.654-6.634,13.308-13.268,19.962-19.902c38.302-38.188,76.604-76.375,114.906-114.562
				c44.017-43.886,88.034-87.771,132.051-131.657c13.798-13.757,27.596-27.514,41.394-41.271c5.115-5.1,14.258-17.761,21.857-10.138
				c25.848,25.925,51.696,51.851,77.544,77.775c45.528,45.664,91.056,91.328,136.584,136.992
				c32.544,32.641,65.088,65.282,97.632,97.924c2.279,2.286,4.56,4.572,6.839,6.859c4.525,4.539,0.916,9.661-2.612,13.179
				c-9.791,9.761-19.582,19.522-29.372,29.284c-41.097,40.973-82.193,81.946-123.29,122.92
				c-42.174,42.047-84.347,84.094-126.521,126.141C534.604,686.275,522.173,698.67,509.742,711.063
				c-4.571,4.557,2.501,11.627,7.071,7.07c22.434-22.365,44.867-44.731,67.3-67.098c45.212-45.076,90.424-90.152,135.635-135.229
				c34.858-34.753,69.716-69.507,104.573-104.26c3.214-3.204,6.429-6.409,9.643-9.613c7.134-7.112,9.997-18.564,2.109-26.475
				c-6.72-6.74-13.439-13.48-20.159-20.22c-38.203-38.317-76.406-76.635-114.609-114.952
				c-44.001-44.132-88.002-88.265-132.003-132.397c-13.967-14.009-27.935-28.018-41.901-42.027
				c-3.188-3.199-6.378-6.397-9.567-9.596c-7.398-7.42-18.718-8.153-26.467-0.427c-23.213,23.145-46.427,46.289-69.641,69.433
				c-45.329,45.194-90.658,90.388-135.987,135.582c-34.313,34.21-68.625,68.42-102.938,102.631
				c-9.125,9.098-23.756,21.859-10.559,35.095c7.183,7.204,14.366,14.408,21.548,21.613
				c38.639,38.754,77.278,77.509,115.917,116.263c43.783,43.915,87.566,87.829,131.35,131.743
				c13.252,13.292,26.505,26.584,39.757,39.876c3.12,3.129,6.239,6.258,9.359,9.387c7.667,7.689,18.374,8.146,26.643,0.67
				C521.605,713.801,514.512,706.751,509.742,711.063z"/>
		</g>
	</g>
</g>
<g id="SO">
	<g>
		<rect x="296.571" y="188.018" fill="none" width="421.429" height="336.839"/>
		<text transform="matrix(1 0 0 1 308.8374 486.2148)" fill="#FFFFFF" font-family="'MyriadPro-Regular'" font-size="420">so</text>
	</g>
	<polygon fill="#FFFFFF" points="342.814,424.375 294.482,489.396 262.34,415.028 	"/>
	<polygon fill="#FFFFFF" points="617.269,279.977 555.908,227.077 632.4,200.386 	"/>
</g>
<g id="arrows">
	<line fill="none" x1="339.857" y1="427.143" x2="317" y2="497.143"/>
	<line fill="none" x1="340" y1="427" x2="297" y2="427"/>
	<line fill="none" x1="297" y1="427" x2="296.571" y2="462.143"/>
	<line fill="none" x1="297" y1="427" x2="339.857" y2="427.143"/>
	<line fill="none" x1="357" y1="240" x2="418.429" y2="356.438"/>
	<line fill="none" x1="418.429" y1="342.857" x2="479.858" y2="459.296"/>
	<line fill="none" x1="418" y1="343" x2="418" y2="240"/>
	<line fill="none" x1="418.429" y1="298.219" x2="449.144" y2="374.286"/>
	<line fill="none" x1="418.429" y1="374.286" x2="357" y2="368.571"/>
	<line fill="none" x1="349.857" y1="368.571" x2="379.857" y2="427.143"/>
	<line fill="none" x1="387.714" y1="427" x2="568.429" y2="427.143"/>
	<line fill="none" x1="503.849" y1="261.429" x2="418" y2="194.286"/>
	<line fill="none" x1="379.857" y1="240" x2="294.006" y2="172.855"/>
	
		<rect x="295.238" y="444.061" transform="matrix(0.9083 0.4184 -0.4184 0.9083 221.4172 -92.1665)" fill="#FFFFFF" width="51.3" height="29.563"/>
	
		<rect x="532.688" y="263.984" transform="matrix(-0.6592 0.7519 -0.7519 -0.6592 1152.4985 37.3806)" fill="#FFFFFF" width="70.182" height="31.694"/>
</g>
</svg>
